# xmcd
# 
# Track frame offsets:
#     150
#     3596
#     21365
#     38265
#     58430
#     74837
#     92716
# 
# Disc length: 1523
# 
# Revision: 0
# Processed by: cddbd v1.5.2PL0 Copyright (c) Steve Scherf et al.
# Submitted via: fre:ac v1.0.17
# 
DISCID=5d05f107
DTITLE=SKY WHITE TIGER - Child Of Fire
DYEAR=2015
DGENRE=
TTITLE0=Lady Rain
TTITLE1=Common
TTITLE2=4Eva
TTITLE3=I Might Be Wrong
TTITLE4=Don't Matter Much
TTITLE5=Heartbeat
TTITLE6=Child Of Fire
EXTD=
EXTT0=
EXTT1=
EXTT2=
EXTT3=
EXTT4=
EXTT5=
EXTT6=
PLAYORDER=
